<mxfile host="app.diagrams.net" modified="2021-01-24T11:56:21.753Z" agent="5.0 (Windows NT 10.0; Win64; x64) AppleWebKit/537.36 (KHTML, like Gecko) Chrome/87.0.4280.141 Safari/537.36" etag="dLDUxaNzmup_WgsseYjg" version="13.9.7" type="github">
  <diagram id="iu_H0c_fmBkkq0BAUeCY" name="Page-1">
    <mxGraphModel dx="529" dy="257" grid="1" gridSize="10" guides="1" tooltips="1" connect="1" arrows="1" fold="1" page="1" pageScale="1" pageWidth="827" pageHeight="1169" math="1" shadow="0">
      <root>
        <mxCell id="0" />
        <mxCell id="1" parent="0" />
        <mxCell id="-BImq0YFWKwRjlf6lc_o-2" value="" style="rounded=1;whiteSpace=wrap;html=1;" vertex="1" parent="1">
          <mxGeometry x="200" y="110" width="90" height="30" as="geometry" />
        </mxCell>
        <mxCell id="-BImq0YFWKwRjlf6lc_o-4" value="" style="endArrow=none;html=1;exitX=0.5;exitY=1;exitDx=0;exitDy=0;entryX=0.5;entryY=0;entryDx=0;entryDy=0;" edge="1" parent="1" source="-BImq0YFWKwRjlf6lc_o-2" target="-BImq0YFWKwRjlf6lc_o-2">
          <mxGeometry width="50" height="50" relative="1" as="geometry">
            <mxPoint x="190" y="150" as="sourcePoint" />
            <mxPoint x="240" y="100" as="targetPoint" />
          </mxGeometry>
        </mxCell>
        <mxCell id="-BImq0YFWKwRjlf6lc_o-6" value="&lt;font style=&quot;font-size: 24px&quot;&gt;a&lt;/font&gt;" style="text;html=1;strokeColor=none;fillColor=none;align=center;verticalAlign=middle;whiteSpace=wrap;rounded=0;" vertex="1" parent="1">
          <mxGeometry x="200" y="115" width="40" height="20" as="geometry" />
        </mxCell>
        <mxCell id="-BImq0YFWKwRjlf6lc_o-7" value="&lt;font style=&quot;font-size: 24px&quot;&gt;b&lt;/font&gt;" style="text;html=1;strokeColor=none;fillColor=none;align=center;verticalAlign=middle;whiteSpace=wrap;rounded=0;" vertex="1" parent="1">
          <mxGeometry x="250" y="115" width="40" height="20" as="geometry" />
        </mxCell>
        <mxCell id="-BImq0YFWKwRjlf6lc_o-9" value="" style="rounded=1;whiteSpace=wrap;html=1;" vertex="1" parent="1">
          <mxGeometry x="200" y="150" width="90" height="30" as="geometry" />
        </mxCell>
        <mxCell id="-BImq0YFWKwRjlf6lc_o-10" value="" style="endArrow=none;html=1;exitX=0.5;exitY=1;exitDx=0;exitDy=0;entryX=0.5;entryY=0;entryDx=0;entryDy=0;" edge="1" parent="1" source="-BImq0YFWKwRjlf6lc_o-9" target="-BImq0YFWKwRjlf6lc_o-9">
          <mxGeometry width="50" height="50" relative="1" as="geometry">
            <mxPoint x="190" y="190" as="sourcePoint" />
            <mxPoint x="240" y="140" as="targetPoint" />
          </mxGeometry>
        </mxCell>
        <mxCell id="-BImq0YFWKwRjlf6lc_o-11" value="&lt;font style=&quot;font-size: 24px&quot;&gt;b&lt;/font&gt;" style="text;html=1;strokeColor=none;fillColor=none;align=center;verticalAlign=middle;whiteSpace=wrap;rounded=0;" vertex="1" parent="1">
          <mxGeometry x="200" y="155" width="40" height="20" as="geometry" />
        </mxCell>
        <mxCell id="-BImq0YFWKwRjlf6lc_o-12" value="&lt;font style=&quot;font-size: 24px&quot;&gt;a&lt;/font&gt;" style="text;html=1;strokeColor=none;fillColor=none;align=center;verticalAlign=middle;whiteSpace=wrap;rounded=0;" vertex="1" parent="1">
          <mxGeometry x="250" y="155" width="40" height="20" as="geometry" />
        </mxCell>
        <mxCell id="-BImq0YFWKwRjlf6lc_o-14" value="$$switch$$" style="text;whiteSpace=wrap;html=1;" vertex="1" parent="1">
          <mxGeometry x="150" y="140" width="60" height="30" as="geometry" />
        </mxCell>
        <mxCell id="-BImq0YFWKwRjlf6lc_o-16" value="$$y_c$$" style="text;html=1;strokeColor=none;fillColor=none;align=center;verticalAlign=middle;whiteSpace=wrap;rounded=0;" vertex="1" parent="1">
          <mxGeometry x="160" y="115" width="40" height="20" as="geometry" />
        </mxCell>
        <mxCell id="-BImq0YFWKwRjlf6lc_o-18" style="edgeStyle=orthogonalEdgeStyle;rounded=0;orthogonalLoop=1;jettySize=auto;html=1;exitX=0.5;exitY=1;exitDx=0;exitDy=0;" edge="1" parent="1">
          <mxGeometry relative="1" as="geometry">
            <mxPoint x="180" y="170" as="sourcePoint" />
            <mxPoint x="180" y="170" as="targetPoint" />
          </mxGeometry>
        </mxCell>
        <mxCell id="-BImq0YFWKwRjlf6lc_o-19" style="edgeStyle=orthogonalEdgeStyle;rounded=0;orthogonalLoop=1;jettySize=auto;html=1;exitX=0.5;exitY=1;exitDx=0;exitDy=0;" edge="1" parent="1" source="-BImq0YFWKwRjlf6lc_o-14" target="-BImq0YFWKwRjlf6lc_o-14">
          <mxGeometry relative="1" as="geometry" />
        </mxCell>
        <mxCell id="-BImq0YFWKwRjlf6lc_o-21" value="" style="rounded=1;whiteSpace=wrap;html=1;" vertex="1" parent="1">
          <mxGeometry x="200" y="190" width="90" height="30" as="geometry" />
        </mxCell>
        <mxCell id="-BImq0YFWKwRjlf6lc_o-22" value="" style="endArrow=none;html=1;exitX=0.5;exitY=1;exitDx=0;exitDy=0;entryX=0.5;entryY=0;entryDx=0;entryDy=0;" edge="1" parent="1" source="-BImq0YFWKwRjlf6lc_o-21" target="-BImq0YFWKwRjlf6lc_o-21">
          <mxGeometry width="50" height="50" relative="1" as="geometry">
            <mxPoint x="190" y="230" as="sourcePoint" />
            <mxPoint x="240" y="180" as="targetPoint" />
          </mxGeometry>
        </mxCell>
        <mxCell id="-BImq0YFWKwRjlf6lc_o-23" value="&lt;font style=&quot;font-size: 18px&quot;&gt;a==b&lt;/font&gt;" style="text;html=1;strokeColor=none;fillColor=none;align=center;verticalAlign=middle;whiteSpace=wrap;rounded=0;" vertex="1" parent="1">
          <mxGeometry x="247" y="194" width="40" height="20" as="geometry" />
        </mxCell>
        <mxCell id="-BImq0YFWKwRjlf6lc_o-25" style="edgeStyle=orthogonalEdgeStyle;rounded=0;orthogonalLoop=1;jettySize=auto;html=1;exitX=0.5;exitY=1;exitDx=0;exitDy=0;" edge="1" parent="1">
          <mxGeometry relative="1" as="geometry">
            <mxPoint x="180" y="210" as="sourcePoint" />
            <mxPoint x="180" y="210" as="targetPoint" />
          </mxGeometry>
        </mxCell>
        <mxCell id="-BImq0YFWKwRjlf6lc_o-26" style="edgeStyle=orthogonalEdgeStyle;rounded=0;orthogonalLoop=1;jettySize=auto;html=1;exitX=0.5;exitY=1;exitDx=0;exitDy=0;" edge="1" parent="1">
          <mxGeometry relative="1" as="geometry">
            <mxPoint x="180" y="210" as="sourcePoint" />
            <mxPoint x="180" y="210" as="targetPoint" />
          </mxGeometry>
        </mxCell>
        <mxCell id="-BImq0YFWKwRjlf6lc_o-27" value="&lt;font style=&quot;font-size: 18px&quot;&gt;a==b&lt;/font&gt;" style="text;html=1;strokeColor=none;fillColor=none;align=center;verticalAlign=middle;whiteSpace=wrap;rounded=0;" vertex="1" parent="1">
          <mxGeometry x="203" y="195" width="40" height="20" as="geometry" />
        </mxCell>
      </root>
    </mxGraphModel>
  </diagram>
</mxfile>
